<?xml version="1.0" encoding="utf-8"?>
<svg xmlns="http://www.w3.org/2000/svg" viewBox="47.987 0.063 440.333 505.104">
  <path style="stroke: rgb(0, 0, 0); fill: rgb(226, 192, 105); transform-box: fill-box; transform-origin: 50% 50%; visibility: hidden;" d="M 384.513 318.211 C 360.782 269.832 359.075 217.859 357.6 198.556 C 357.05 191.364 348.795 189.859 348.385 201.978 C 344.333 245.187 361.099 308.041 388.748 351.742" transform="matrix(-1, 0, 0, -1, -2.169534, -1.279593)"/>
  <path style="stroke: rgb(0, 0, 0); fill: rgb(226, 192, 105); fill-rule: nonzero; visibility: hidden;" d="M 240.55 486.586 C 243.057 488.804 260.705 439.858 259.965 439.082 C 259.884 437.914 272.262 438.923 272.292 439.356 C 272.519 439.571 289.482 490.04 291.482 487.569 C 299.666 480.373 321.253 416.111 322.729 405.826 C 373.004 317.126 344.403 197.189 345.811 193.865 C 335.189 127.107 324.5 75.571 288.725 16.871 C 278.069 45.888 279.088 46.912 273.88 67.455 C 273.88 68.724 263.433 67.926 263.433 67.455 C 259.669 47.878 248.71 22.919 246.755 18.887 C 236.167 30.438 158.918 182.511 190.937 347.963 C 191.623 360.435 210.844 402.881 212.238 404.922 C 222.623 441.471 237.568 488.736 240.55 486.586 Z"/>
  <path style="fill: rgb(197, 147, 93); stroke: rgba(0, 0, 0, 0); visibility: hidden;" d="M 191.814 348.344 C 347.843 443.456 349.19 283.228 349.794 229.8 C 360.861 341.168 329.519 392.615 322.185 405.764 C 322.069 411.066 301.483 475.418 291.439 486.866 C 289.045 487.265 272.939 439.411 272.939 439.411 C 272.466 438.228 259.318 437.488 259.791 438.671 C 260.26 438.608 244.698 483.532 240.16 486.483 C 234.823 480.393 210.784 401.835 213.005 404.836 C 203.208 386.49 191.124 354.961 191.814 348.344 Z"/>
  <path style="stroke: rgb(0, 0, 0); fill: rgb(226, 192, 105); visibility: hidden;" d="M 184.918 225.54 C 163.034 273.919 159.408 325.892 158.047 345.195 C 157.54 352.387 149.928 356.396 149.549 344.277 C 145.813 301.068 163.327 235.71 188.822 192.009"/>
  <path style="stroke: rgb(0, 0, 0); fill: rgb(226, 192, 105);" d="M 185.095 225.673 C 169.348 245.632 138.288 269.681 95.779 299.223 C 86.866 305.417 85.507 294.749 89.031 291.885 C 135.482 251.264 168.683 236.849 188.999 192.142"/>
  <path style="stroke: rgb(0, 0, 0); fill: rgb(226, 192, 105); visibility: hidden;" d="M 271.176 231.217 C 249.292 279.596 245.666 331.569 244.305 350.872 C 243.798 358.064 236.186 362.073 235.807 349.954 C 232.071 306.745 249.585 241.387 275.08 197.686"/>
</svg>