<?xml version="1.0" encoding="utf-8"?>
<svg xmlns="http://www.w3.org/2000/svg">
  <path style="stroke: rgb(0, 0, 0); fill: rgb(226, 192, 105); transform-box: fill-box; transform-origin: 50% 50%; visibility: hidden;" d="M 384.513 318.211 C 360.782 269.832 359.075 217.859 357.6 198.556 C 357.05 191.364 348.795 189.859 348.385 201.978 C 344.333 245.187 361.099 308.041 388.748 351.742" transform="matrix(-1, 0, 0, -1, -2.169534, -1.279593)"/>
  <path style="stroke: rgb(0, 0, 0); fill: rgb(226, 192, 105); visibility: hidden;" d="M 184.517 227.485 C 162.633 275.864 159.007 327.837 157.646 347.14 C 157.139 354.332 149.527 358.341 149.148 346.222 C 145.412 303.013 162.926 237.655 188.421 193.954"/>
  <path style="stroke: rgb(0, 0, 0); fill: rgb(226, 192, 105); fill-rule: nonzero; visibility: hidden;" d="M 240.55 486.586 C 243.057 488.804 260.705 439.858 259.965 439.082 C 259.884 437.914 272.262 438.923 272.292 439.356 C 272.519 439.571 289.482 490.04 291.482 487.569 C 299.666 480.373 321.253 416.111 322.729 405.826 C 373.004 317.126 344.403 197.189 345.811 193.865 C 335.189 127.107 324.5 75.571 288.725 16.871 C 278.069 45.888 279.088 46.912 273.88 67.455 C 273.88 68.724 263.433 67.926 263.433 67.455 C 259.669 47.878 248.71 22.919 246.755 18.887 C 236.167 30.438 158.918 182.511 190.937 347.963 C 191.623 360.435 210.844 402.881 212.238 404.922 C 222.623 441.471 237.568 488.736 240.55 486.586 Z"/>
  <path style="fill: rgb(197, 147, 93); stroke: rgba(0, 0, 0, 0); visibility: hidden;" d="M 191.814 348.344 C 347.843 443.456 349.19 283.228 349.794 229.8 C 360.861 341.168 329.519 392.615 322.185 405.764 C 322.069 411.066 301.483 475.418 291.439 486.866 C 289.045 487.265 272.939 439.411 272.939 439.411 C 272.466 438.228 259.318 437.488 259.791 438.671 C 260.26 438.608 244.698 483.532 240.16 486.483 C 234.823 480.393 210.784 401.835 213.005 404.836 C 203.208 386.49 191.124 354.961 191.814 348.344 Z"/>
  <path style="stroke: rgb(0, 0, 0); fill: rgba(216, 216, 216, 0);" d="M 244.067 157.758 C 245.111 168.464 256.38 168.766 263.394 162.401 C 273.03 170.312 282.122 168.584 282.506 160.349"/>
  <path style="stroke: rgb(0, 0, 0); fill: rgb(218, 168, 128);" d="M 252.631 166.61 C 252.19 184.855 276.929 181.398 276.938 167.316 C 273.929 167.76 268.217 166.616 263.333 162.462 C 260.251 165.241 256.295 166.904 252.631 166.61 Z"/>
</svg>